<svg width="32" height="32" viewBox="0 0 100 100" fill="none" xmlns="http://www.w3.org/2000/svg">
  <!-- Graduation Cap (Yellow) -->
  <path d="M50 20L15 35L50 50L85 35L50 20Z" fill="#FFB700"/>
  <path d="M25 40V55C25 55 35 62 50 62C65 62 75 55 75 55V40" stroke="#FFB700" stroke-width="6" stroke-linecap="round"/>
  <path d="M80 37V55" stroke="#FFB700" stroke-width="4" stroke-linecap="round"/>
  <circle cx="80" cy="58" r="4" fill="#FFB700"/>
  
  <!-- Modern 'S' (Static White for Favicon) -->
  <path d="M65 45C65 40 60 35 50 35C40 35 35 40 35 45C35 50 40 55 50 57C65 60 70 65 70 75C70 85 62 90 50 90C38 90 30 85 30 75" stroke="white" stroke-width="12" stroke-linecap="round"/>
</svg>
